# xmcd
#
# Track frame offsets:
#	150
#	22162
#	44030
#	64970
#	83677
#
# Disc length: 1356 seconds
#
# Revision: 1
# Processed by: cddbd v1.5PL3 Copyright (c) Steve Scherf et al.
# Submitted via: CDex 1.50Beta5
#
DISCID=42054a05
DTITLE=くま井ゆう子 - スケッチ
DYEAR=1993
DGENRE=Pop
TTITLE0=Bye Bye Nineteen
TTITLE1=青いシャツ
TTITLE2=青春サイクリング
TTITLE3=悲しい夜でも
TTITLE4=何年たっても
EXTD=
EXTT0=
EXTT1=
EXTT2=
EXTT3=
EXTT4=
PLAYORDER=
